# xmcd
# Copyright (C) 1995-1998 Ti Kan
#
# Track frame offsets:
#       150
#       17602
#       36415
#       52344
#       75742
#       93121
#       108523
#       123583
#       127788
#       138478
#       154589
#       156546
#       180711
#       198429
#       216649
#       245209
#       267053
#
# Disc length: 3999 seconds
#
# Revision: 0
# Processed by: cddbd v1.5.2PL0 Copyright (c) Steve Scherf et al.
# Submitted via: CD-Import v1.0
#
DISCID=f90f9d11
DTITLE=Z'hansrüedi - 
DYEAR=2007
DGENRE=
TTITLE0=Hittu Gits Es Riesufäscht
TTITLE1=Miini Lieder
TTITLE2=Walliser Bier
TTITLE3=Im Wallis
TTITLE4=Natersch, Miis Derfji
TTITLE5=Ledl
TTITLE6=Müeterli
TTITLE7=Vaterli
TTITLE8=Vater, Kolleg Und Frind
TTITLE9=Alls Was Brüüchscht...
TTITLE10=Publikumsspiel
TTITLE11=Fitlamzüü
TTITLE12=13 Stärna
TTITLE13=Alles Immer Numma No Mit Dier
TTITLE14=Ich Bi Walliser
TTITLE15=Laftinomeh
TTITLE16=Jollolloh!
EXTD=
EXTT0=
EXTT1=
EXTT2=
EXTT3=
EXTT4=
EXTT5=
EXTT6=
EXTT7=
EXTT8=
EXTT9=
EXTT10=
EXTT11=
EXTT12=
EXTT13=
EXTT14=
EXTT15=
EXTT16=
PLAYORDER=
